GRF
version=1
nRows=40
nColumns=10
inDegrees=no
endheader
time	1_ground_force_vx	1_ground_force_vy	1_ground_force_vz	1_ground_force_px	1_ground_force_py	1_ground_force_pz	1_ground_torque_x	1_ground_torque_y	1_ground_torque_z
      2.97500000	   -141.80309088	    873.43211763	    -28.24283360	      0.27859536	      0.00000000	      0.14004297	      0.00000000	     -1.04416213	      0.00000000
      2.97600000	   -143.08901917	    871.86301612	    -28.05997477	      0.27846183	      0.00000000	      0.13996092	     -0.00000000	     -1.02775194	     -0.00000000
      2.97700000	   -144.33518412	    870.14253025	    -27.81233075	      0.27832421	      0.00000000	      0.13988074	      0.00000000	     -1.01274667	      0.00000000
      2.97800000	   -145.54280433	    868.36577779	    -27.52729664	      0.27819291	      0.00000000	      0.13980596	     -0.00000000	     -0.99543780	     -0.00000000
      2.97900000	   -146.74628074	    866.51166192	    -27.24916836	      0.27808422	      0.00000000	      0.13972608	      0.00000000	     -0.97512709	      0.00000000
      2.98000000	   -147.96560739	    864.58008427	    -27.01554370	      0.27799471	      0.00000000	      0.13962992	      0.00000000	     -0.96141212	     -0.00000000
      2.98100000	   -149.20623035	    862.54144428	    -26.79457473	      0.27790409	      0.00000000	      0.13953110	     -0.00000000	     -0.95385050	      0.00000000
      2.98200000	   -150.45353996	    860.45909841	    -26.54053168	      0.27780181	      0.00000000	      0.13944630	      0.00000000	     -0.95036904	     -0.00000000
      2.98300000	   -151.71598589	    858.32301856	    -26.23481488	      0.27768817	      0.00000000	      0.13937905	     -0.00000000	     -0.95010906	      0.00000000
      2.98400000	   -152.98005507	    856.08809482	    -25.87619723	      0.27757585	      0.00000000	      0.13931375	      0.00000000	     -0.94913101	     -0.00000000
      2.98500000	   -154.21363315	    853.63513001	    -25.48425766	      0.27747275	      0.00000000	      0.13923826	     -0.00000000	     -0.94853482	      0.00000000
      2.98600000	   -155.42289951	    850.97583916	    -25.08812238	      0.27738252	      0.00000000	      0.13914461	      0.00000000	     -0.94987923	     -0.00000000
      2.98700000	   -156.60876952	    848.11620387	    -24.69751160	      0.27728941	      0.00000000	      0.13905061	     -0.00000000	     -0.94604570	      0.00000000
      2.98800000	   -157.80549444	    845.21761072	    -24.34412517	      0.27718467	      0.00000000	      0.13895905	      0.00000000	     -0.93985096	     -0.00000000
      2.98900000	   -159.05233982	    842.31356369	    -24.00545725	      0.27706757	      0.00000000	      0.13887080	     -0.00000000	     -0.93515385	      0.00000000
      2.99000000	   -160.33490855	    839.37484018	    -23.63953513	      0.27695322	      0.00000000	      0.13878127	      0.00000000	     -0.93470449	     -0.00000000
      2.99100000	   -161.64553788	    836.32048468	    -23.22108659	      0.27685455	      0.00000000	      0.13868294	     -0.00000000	     -0.94895979	      0.00000000
      2.99200000	   -162.95205412	    833.04346625	    -22.73947208	      0.27676498	      0.00000000	      0.13858264	      0.00000000	     -0.96983321	     -0.00000000
      2.99300000	   -164.22140732	    829.60035899	    -22.22523534	      0.27667780	      0.00000000	      0.13849034	     -0.00000000	     -0.99219411	      0.00000000
      2.99400000	   -165.45760525	    826.11634694	    -21.69262071	      0.27659032	      0.00000000	      0.13840757	      0.00000000	     -1.00792673	     -0.00000000
      2.99500000	   -166.67966427	    822.63474257	    -21.13358068	      0.27652057	      0.00000000	      0.13833239	     -0.00000000	     -1.01234110	      0.00000000
      2.99600000	   -167.91339321	    819.15918423	    -20.54706016	      0.27647304	      0.00000000	      0.13825455	      0.00000000	     -1.01090178	     -0.00000000
      2.99700000	   -169.15649693	    815.52039595	    -19.91192964	      0.27643686	      0.00000000	      0.13815982	     -0.00000000	     -1.01246750	      0.00000000
      2.99800000	   -170.33160939	    811.59796715	    -19.24112351	      0.27639683	      0.00000000	      0.13804271	      0.00000000	     -1.01934667	     -0.00000000
      2.99900000	   -171.33731214	    807.40508433	    -18.58655075	      0.27632634	      0.00000000	      0.13791145	     -0.00000000	     -1.03036992	      0.00000000
      3.00000000	   -172.11655064	    803.00890517	    -18.01034771	      0.27621868	      0.00000000	      0.13777903	      0.00000000	     -1.02446423	     -0.00000000
      3.00100000	   -172.78442803	    798.49384395	    -17.57580598	      0.27608408	      0.00000000	      0.13765235	     -0.00000000	     -1.00197199	      0.00000000
      3.00200000	   -173.56406907	    793.91964936	    -17.24671723	      0.27594049	      0.00000000	      0.13752705	      0.00000000	     -0.97927891	     -0.00000000
      3.00300000	   -174.64188617	    789.30319252	    -16.89905193	      0.27580948	      0.00000000	      0.13739823	     -0.00000000	     -0.97918013	      0.00000000
      3.00400000	   -176.04369690	    784.72888870	    -16.41842154	      0.27570786	      0.00000000	      0.13727798	      0.00000000	     -1.01385398	     -0.00000000
      3.00500000	   -177.60258964	    780.29796700	    -15.78217810	      0.27564206	      0.00000000	      0.13719938	     -0.00000000	     -1.06314358	      0.00000000
      3.00600000	   -179.09579196	    775.88631018	    -15.04675763	      0.27561503	      0.00000000	      0.13716978	      0.00000000	     -1.10057116	     -0.00000000
      3.00700000	   -180.34118857	    771.31342780	    -14.39240278	      0.27560139	      0.00000000	      0.13717974	     -0.00000000	     -1.10333118	      0.00000000
      3.00800000	   -181.25888130	    766.29133393	    -13.88910002	      0.27557316	      0.00000000	      0.13717503	      0.00000000	     -1.06632359	     -0.00000000
      3.00900000	   -181.88207469	    760.78407194	    -13.45003355	      0.27549020	      0.00000000	      0.13713731	     -0.00000000	     -0.99859441	      0.00000000
      3.01000000	   -182.32025506	    754.93432061	    -12.99542615	      0.27537004	      0.00000000	      0.13705494	      0.00000000	     -0.92466388	     -0.00000000
      3.01100000	   -182.78862522	    748.94561526	    -12.27321378	      0.27521088	      0.00000000	      0.13696084	     -0.00000000	     -0.86978740	      0.00000000
      3.01200000	   -183.37111105	    742.90774966	    -11.27687210	      0.27508563	      0.00000000	      0.13687332	      0.00000000	     -0.85767075	     -0.00000000
      3.01300000	   -183.99406383	    736.86473591	    -10.31201522	      0.27502708	      0.00000000	      0.13680872	     -0.00000000	     -0.86244724	      0.00000000
      3.01400000	   -184.66848730	    730.67072649	     -9.54813203	      0.27503665	      0.00000000	      0.13676366	      0.00000000	     -0.86976040	     -0.00000000
